PathFileType	4	(X/Y/Z)	./motion_analysis/DM_ngait_tm_med1_new.trc
DataRate	CameraRate	NumFrames	NumMarkers	Units	OrigDataRate	OrigDataStartFrame	OrigNumFrames
120	120	4	68	mm	120	1288	2061
Frame#	Time	Sternum			Neck			R_Shoulder			L_Shoulder			Xiphoid			Thoracic			R_Asis			L_Asis			R_Psis			L_Psis			Lumbar			R_Elbow			R_ElbowMedial			R_ShoulderAnterior			R_ShoulderPosterior			R_Wrist			R_Radius			R_Ulna			L_Elbow			L_ElbowMedial			L_ShoulderAnterior			L_ShoulderPosterior			L_Wrist			L_Ulna			L_Radius			L_Thigh_Superior			L_Thigh_Inferior			L_Thigh_Lateral			L_Knee_Lateral			L_Knee_Medial			L_Patella			L_Shank_Superior			L_Shank_Inferior			L_Shank_Lateral			L_Ankle_Lateral			L_Ankle_Medial			R_Thigh_Superior			R_Thigh_Inferior			R_Thigh_Lateral			R_Knee_Lateral			R_Knee_Medial			R_Patella			R_Shank_Superior			R_Shank_Inferior			R_Shank_Lateral			R_Ankle_Lateral			RankleMedial			R_Heel			R_Toe			R_Midfoot_Medial			R_Midfoot_Lateral			R_Hindfoot			R_Midfoot_Superior			R_ToeMedial			R_ToeLateral			L_Heel			L_Toe			L_Midfoot_Medial			L_Midfoot_Lateral			L_Hindfoot			L_Midfoot_Superior			L_ToeMedial			L_ToeLateral			Oglobal			Sacral			Xglobal			Yglobal			Zglobal			
		X1	Y1	Z1	X2	Y2	Z2	X3	Y3	Z3	X4	Y4	Z4	X5	Y5	Z5	X6	Y6	Z6	X7	Y7	Z7	X8	Y8	Z8	X9	Y9	Z9	X10	Y10	Z10	X11	Y11	Z11	X12	Y12	Z12	X13	Y13	Z13	X14	Y14	Z14	X15	Y15	Z15	X16	Y16	Z16	X17	Y17	Z17	X18	Y18	Z18	X19	Y19	Z19	X20	Y20	Z20	X21	Y21	Z21	X22	Y22	Z22	X23	Y23	Z23	X24	Y24	Z24	X25	Y25	Z25	X26	Y26	Z26	X27	Y27	Z27	X28	Y28	Z28	X29	Y29	Z29	X30	Y30	Z30	X31	Y31	Z31	X32	Y32	Z32	X33	Y33	Z33	X34	Y34	Z34	X35	Y35	Z35	X36	Y36	Z36	X37	Y37	Z37	X38	Y38	Z38	X39	Y39	Z39	X40	Y40	Z40	X41	Y41	Z41	X42	Y42	Z42	X43	Y43	Z43	X44	Y44	Z44	X45	Y45	Z45	X46	Y46	Z46	X47	Y47	Z47	X48	Y48	Z48	X49	Y49	Z49	X50	Y50	Z50	X51	Y51	Z51	X52	Y52	Z52	X53	Y53	Z53	X54	Y54	Z54	X55	Y55	Z55	X56	Y56	Z56	X57	Y57	Z57	X58	Y58	Z58	X59	Y59	Z59	X60	Y60	Z60	X61	Y61	Z61	X62	Y62	Z62	X63	Y63	Z63	X64	Y64	Z64	X65	Y65	Z65	X66	Y66	Z66	X67	Y67	Z67	X68	Y68	Z68	

1289	10.741667	-962.448	1361.78	452.705	-811.711	1453	429.596	-919.926	1392.89	276.967	-859.224	1407.91	616.1130000000001	-977.294	1195.82	456.137	-711.232	1266.47	441.198	-893.164	971.389	314.482	-899.878	970.5	589.442	-692.823	1016.42	427.169	-695.819	1015.29	504.859	-697.9829999999999	1065.32	462.977	-1002.79	1084.2	201.124	-0	0	0	-0	0	0	-0	0	0	-1214.18	940.211	288.124	-1186.82	935.3579999999999	326.729	-1194.66	908.3339999999999	258.128	-769.885	1077.91	708.106	-0	0	0	-0	0	0	-0	0	0	-805.451	810.247	704.76	-760.592	823.8680000000001	715.577	-811.179	826.679	660.721	-876.157	810.771	622.952	-978.501	614.369	566.073	-986.71	700.667	557.148	-0	0	0	-0	0	0	-1034.85	542.836	502.376	-985.333	462.37	581.202	-999.785	190.566	589.54	-1023.26	320.022	513.533	-0	0	0	-0	0	0	-764.77	799.529	282.95	-716.061	588.5119999999999	324.537	-819.46	624.567	360.161	-0	0	0	-0	0	0	-763.696	470.367	387.135	-0	0	0	-499.387	243.822	323.962	-619.4059999999999	319.905	390.236	-0	0	0	-0	0	0	-359.597	150.535	374.736	-632.6559999999999	53.6466	380.308	-556.317	45.5855	430.44	-542.746	37.8407	314.215	-438.933	77.137	325.444	-530.886	143.908	368.123	-597.04	48.4188	425.213	-590.8630000000001	48.3952	331.107	-939.301	75.3811	535.579	-1235.68	80.917	546.179	-1160.93	56.9051	494.277	-1145.24	54.454	607.651	-1037	43.718	595.473	-1098.46	138.541	546.991	-1200.39	60.5036	501.236	-1197.58	59.9766	598.078	-0	0	0	-694.321	1015.85	466.014	-200	0	0	-0	0	200	-0	200	0	
1290	10.75	-963.838	1362.56	454.764	-812.996	1453.8	432.021	-921.3630000000001	1394.19	279.159	-861.053	1408.02	618.2329999999999	-978.87	1196.73	457.727	-712.6609999999999	1267.18	442.909	-894.253	971.327	316.068	-901.417	971.995	591.152	-694.1849999999999	1017.2	428.905	-697.292	1016.15	506.384	-699.333	1066.14	464.412	-1003.41	1085.63	201.937	-0	0	0	-0	0	0	-0	0	0	-1214.14	940.2809999999999	288.194	-1186.81	935.484	326.884	-1194.48	908.5549999999999	258.197	-773.144	1077.82	710.016	-0	0	0	-0	0	0	-0	0	0	-807.76	810.052	706.554	-763.014	823.8200000000001	717.539	-813.511	826.48	662.533	-877.611	811.718	624.157	-981.5890000000001	616.915	565.641	-988.409	700.895	559.047	-0	0	0	-0	0	0	-1035.85	542.8579999999999	503.088	-985.734	462.839	581.775	-995.927	190.808	590.048	-1020.96	319.989	513.769	-0	0	0	-0	0	0	-766.665	799.48	284.875	-719.665	587.9829999999999	325.77	-822.889	624.758	361.793	-0	0	0	-0	0	0	-768.189	469.428	387.159	-0	0	0	-499.034	247.159	324.019	-620.686	320.709	390.113	-0	0	0	-0	0	0	-358.017	158.041	374.39	-627.005	51.9114	380.372	-550.734	46.0072	430.29	-537.039	38.8101	314.044	-434.74	81.8511	325.171	-529.011	145.21	367.986	-591.148	47.699	425.247	-585.083	47.8111	331.179	-932.846	75.63460000000001	535.897	-1229.63	78.7788	546.388	-1154.34	55.6593	494.576	-1138.65	53.4136	607.955	-1030.38	43.5822	595.6660000000001	-1092.69	137.859	547.246	-1194.07	58.7733	501.373	-1191.43	58.4066	598.312	-0	0	0	-695.739	1016.67	467.645	-200	0	0	-0	0	200	-0	200	0	
1291	10.758333	-965.237	1363.49	456.872	-814.227	1454.67	434.29	-922.759	1395.59	281.256	-862.732	1408.37	620.3099999999999	-980.331	1197.78	459.448	-713.9059999999999	1267.95	444.486	-895.134	971.164	317.371	-902.948	973.7190000000001	592.922	-695.461	1017.99	430.522	-698.751	1017	507.873	-700.554	1066.97	465.761	-1004.16	1087.28	202.856	-0	0	0	-0	0	0	-0	0	0	-1214.15	940.3869999999999	288.29	-1186.88	935.6079999999999	327.089	-1194.34	908.776	258.281	-776.653	1077.86	712.029	-0	0	0	-0	0	0	-0	0	0	-810.455	809.997	708.438	-765.779	823.921	719.585	-816.148	826.431	664.397	-879.441	812.852	625.48	-984.418	619.0839999999999	565.534	-990.052	701.265	560.976	-0	0	0	-0	0	0	-1036.44	542.702	503.623	-986.03	463.145	582.17	-991.825	191.14	590.404	-1018.27	319.928	514.006	-0	0	0	-0	0	0	-768.644	799.266	286.853	-723.721	587.379	327.028	-826.684	624.998	363.545	-0	0	0	-0	0	0	-773.1079999999999	468.536	387.278	-0	0	0	-499.275	250.592	324.15	-622.562	321.56	390.118	-0	0	0	-0	0	0	-357.122	166.067	374.259	-621.404	50.1637	380.523	-545.2430000000001	46.4987	430.206	-531.427	40.0316	313.931	-430.99	87.0681	325.044	-527.542	146.57	368.041	-585.356	46.9243	425.342	-579.4	47.2398	331.227	-926.253	75.7923	536.178	-1223.42	76.9331	546.23	-1147.63	54.6004	494.813	-1131.97	52.6668	608.202	-1023.87	43.5385	595.925	-1086.68	137.322	547.357	-1187.68	57.3539	501.081	-1185.18	57.2502	598.367	-0	0	0	-697.106	1017.5	469.198	-200	0	0	-0	0	200	-0	200	0	
1292	10.766667	-966.474	1364.48	458.793	-815.318	1455.63	436.364	-924.0119999999999	1397	283.295	-864.279	1408.79	622.2809999999999	-981.755	1198.92	461.235	-715.044	1268.7	446.026	-896.069	971.1180000000001	318.681	-904.367	975.35	594.605	-696.715	1018.88	432.007	-700.162	1017.94	509.225	-701.78	1067.89	467.023	-1005.11	1089.07	203.809	-0	0	0	-0	0	0	-0	0	0	-1214.24	940.563	288.439	-1187	935.729	327.183	-1194.26	909.125	258.383	-780.162	1078.06	713.913	-0	0	0	-0	0	0	-0	0	0	-813.492	810.115	710.397	-768.963	824.122	721.8200000000001	-818.9589999999999	826.579	666.3	-881.744	814.1369999999999	626.842	-986.726	620.875	565.5	-991.6180000000001	701.761	562.9059999999999	-0	0	0	-0	0	0	-1036.71	542.35	504.187	-986.038	463.25	582.503	-987.333	191.297	590.631	-1015.28	319.799	514.081	-0	0	0	-0	0	0	-770.752	799.0410000000001	288.901	-728.182	586.7809999999999	328.273	-830.727	625.314	365.083	-0	0	0	-0	0	0	-778.559	467.632	387.377	-0	0	0	-500.08	254.177	324.519	-624.928	322.566	390.33	-0	0	0	-0	0	0	-356.949	174.535	374.159	-615.8680000000001	48.3433	380.661	-539.8579999999999	47.1329	430.096	-526.092	41.6839	313.764	-427.646	92.7942	324.837	-526.4450000000001	148.083	368.282	-579.53	46.0912	425.325	-573.854	46.7568	331.289	-919.62	75.83710000000001	536.412	-1217.04	75.8506	546.212	-1140.9	53.8622	494.951	-1125.31	52.2425	608.355	-1017.17	43.5468	596.0700000000001	-1080.43	136.968	547.354	-1181.24	56.1588	501.497	-1178.82	56.6524	598.504	-0	0	0	-698.439	1018.41	470.616	-200	0	0	-0	0	200	-0	200	0	
